<?xml version="1.0" encoding="iso-8859-1"?>
<!-- Generator: Adobe Illustrator 19.0.0, SVG Export Plug-In . SVG Version: 6.00 Build 0)  -->
<svg version="1.1" id="Capa_1" xmlns="http://www.w3.org/2000/svg" xmlns:xlink="http://www.w3.org/1999/xlink" x="0px" y="0px"
	 viewBox="0 0 450.56 450.56" style="enable-background:new 0 0 450.56 450.56;" xml:space="preserve">
<g>
	<g>
		<path d="M448,258.752l-55.296-111.104c-3.584-7.168-10.752-11.264-18.432-11.264H286.72c-11.264,0-20.48,9.216-20.48,20.48
			c0,11.264,9.216,20.48,20.48,20.48h75.264l35.328,70.144h-88.576c-9.728,0-17.92,6.656-19.968,16.384
			c-1.024,5.632-12.8,53.248-63.488,53.248s-61.952-47.616-63.488-53.248c-2.048-9.728-10.24-16.384-19.968-16.384H53.76
			l35.328-70.144h74.752c11.264,0,20.48-9.216,20.48-20.48c0-11.264-9.216-20.48-20.48-20.48H76.288
			c-7.68,0-14.848,4.608-18.432,11.264L2.56,258.752c-1.536,2.56-2.56,6.144-2.56,9.216v123.904c0,28.16,23.04,51.2,51.2,51.2
			h348.16c28.16,0,51.2-23.04,51.2-51.2V267.968C450.56,264.896,449.536,261.824,448,258.752z"/>
	</g>
</g>
<g>
	<g>
		<path d="M309.76,78.528l-70.656-65.024c-0.512-0.512-1.024-0.512-1.024-1.024c-0.512-0.512-1.024-1.024-1.536-1.024
			c-1.024-0.512-1.536-1.024-2.048-1.024l-1.536-1.024c-1.024-0.512-1.536-0.512-2.56-1.024l-1.536-0.512
			c-2.56-0.512-5.12-0.512-7.68,0l-1.024,1.024c-1.024,0-1.536,0.512-2.56,0.512c-0.512,0-1.024,0.512-1.536,1.024
			c-0.512,0-1.024,0.512-1.536,1.024c-0.512,0.512-1.024,1.024-1.536,1.024c-0.512,0.512-1.024,0.512-1.024,1.024L140.8,78.528
			c-8.192,7.68-8.704,20.992-1.024,29.184s20.992,8.704,29.184,1.024l35.84-33.28v154.112c0,11.264,9.216,20.48,20.48,20.48
			c11.264,0,20.48-9.216,20.48-20.48V75.456l35.84,33.28c8.192,7.68,21.504,7.168,29.184-1.024S317.952,86.208,309.76,78.528z"/>
	</g>
</g>
<g>
</g>
<g>
</g>
<g>
</g>
<g>
</g>
<g>
</g>
<g>
</g>
<g>
</g>
<g>
</g>
<g>
</g>
<g>
</g>
<g>
</g>
<g>
</g>
<g>
</g>
<g>
</g>
<g>
</g>
</svg>
